# xmcd CD database file
#
# Track frame offsets:
#	182
#	10705
#	29215
#	50032
#	60665
#	83812
#	139450
#	156995
#	171812
#	188780
#	213307
#	237057
#
# Disc length: 3483 seconds
#
# Revision: 0
# Processed by: cddbd v1.5.2PL0 Copyright (c) Steve Scherf et al.
# Submitted via: CDex 1.51
#
DISCID=a70d990c
DTITLE=Motel Kings - Hot To The Touch
DYEAR=1900
DGENRE=Blues
TTITLE0=One More Time
TTITLE1=Sure Fine Lovin
TTITLE2=Red Shoes
TTITLE3=Rock Boppin Baby
TTITLE4=Hot To The Touch
TTITLE5=Full Time Lover
TTITLE6=Look No Further
TTITLE7=My Girl Lou
TTITLE8=Checkin On My Baby
TTITLE9=You Got Me
TTITLE10=You Were Wrong
TTITLE11=Hot To The Touch
EXTD=
EXTT0=
EXTT1=
EXTT2=
EXTT3=
EXTT4=
EXTT5=
EXTT6=
EXTT7=
EXTT8=
EXTT9=
EXTT10=
EXTT11=
PLAYORDER=
